<svg xmlns="http://www.w3.org/2000/svg" viewBox="0 0 512 512" width="512" height="512" fill="none">
  <defs>
    <linearGradient id="g" x1="0" y1="0" x2="1" y2="1">
      <stop offset="0%" stop-color="#7C3AED"/>
      <stop offset="100%" stop-color="#0EA5E9"/>
    </linearGradient>
    <radialGradient id="glow" cx="50%" cy="50%" r="50%">
      <stop offset="0%" stop-color="#A78BFA" stop-opacity="0.25"/>
      <stop offset="100%" stop-color="#60A5FA" stop-opacity="0"/>
    </radialGradient>
  </defs>

  <!-- Soft glow -->
  <circle cx="256" cy="256" r="220" fill="url(#glow)"/>

  <!-- AI chip base -->
  <rect x="128" y="128" width="256" height="256" rx="28" stroke="url(#g)" stroke-width="6"/>
  <rect x="156" y="156" width="200" height="200" rx="20" stroke="url(#g)" stroke-opacity="0.5" stroke-width="3"/>

  <!-- Pins -->
  <g stroke="url(#g)" stroke-width="6" stroke-linecap="round">
    <line x1="168" y1="116" x2="168" y2="96"/>
    <line x1="208" y1="116" x2="208" y2="88"/>
    <line x1="248" y1="116" x2="248" y2="84"/>
    <line x1="288" y1="116" x2="288" y2="88"/>
    <line x1="328" y1="116" x2="328" y2="96"/>

    <line x1="168" y1="396" x2="168" y2="416"/>
    <line x1="208" y1="404" x2="208" y2="428"/>
    <line x1="248" y1="408" x2="248" y2="432"/>
    <line x1="288" y1="404" x2="288" y2="428"/>
    <line x1="328" y1="396" x2="328" y2="416"/>

    <line x1="116" y1="168" x2="96" y2="168"/>
    <line x1="116" y1="208" x2="88" y2="208"/>
    <line x1="116" y1="248" x2="84" y2="248"/>
    <line x1="116" y1="288" x2="88" y2="288"/>
    <line x1="116" y1="328" x2="96" y2="328"/>

    <line x1="396" y1="168" x2="416" y2="168"/>
    <line x1="404" y1="208" x2="428" y2="208"/>
    <line x1="408" y1="248" x2="432" y2="248"/>
    <line x1="404" y1="288" x2="428" y2="288"/>
    <line x1="396" y1="328" x2="416" y2="328"/>
  </g>

  <!-- Neural connections -->
  <g stroke="url(#g)" stroke-width="6" stroke-linecap="round" stroke-linejoin="round" opacity="0.9">
    <path d="M180 340c20-8 32-20 40-36 10-20 8-44 24-60s40-14 60-24c16-8 28-20 36-40"/>
    <path d="M180 260c18 8 30 6 42-2 12-8 18-22 30-30s26-10 42-2" opacity="0.7"/>
    <path d="M220 340c10-10 22-16 34-18 12-2 24 0 34-8 10-8 14-20 16-34 2-12 8-24 18-34" opacity="0.6"/>
  </g>

  <!-- Nodes -->
  <g fill="url(#g)" opacity="0.95">
    <circle cx="180" cy="340" r="8"/>
    <circle cx="220" cy="340" r="7"/>
    <circle cx="260" cy="322" r="6"/>
    <circle cx="294" cy="314" r="6"/>
    <circle cx="310" cy="280" r="7"/>
    <circle cx="326" cy="246" r="8"/>

    <circle cx="180" cy="260" r="7"/>
    <circle cx="222" cy="258" r="6"/>
    <circle cx="252" cy="236" r="6"/>
    <circle cx="282" cy="228" r="6"/>
    <circle cx="312" cy="230" r="6"/>
  </g>

  <!-- AI text -->
  <g fill="url(#g)">
    <path d="M230 304l-26-72h16l6 18h28l6-18h16l-26 72h-20zm18-28l10-30h-20l10 30z"/>
    <path d="M318 232v72h-16v-72h16z"/>
  </g>
</svg>


