<svg xmlns="http://www.w3.org/2000/svg" viewBox="0 0 512 512" width="512" height="512">
  <path d="M256 32c-88.8 0-160 71.2-160 160s71.2 160 160 160 160-71.2 160-160S344.8 32 256 32zm0 288c-70.7 0-128-57.3-128-128s57.3-128 128-128 128 57.3 128 128-57.3 128-128 128z" fill="none" stroke="currentColor" stroke-width="32"/>
  <path d="M96 416c-53 0-96-43-96-96s43-96 96-96 96 43 96 96-43 96-96 96zm0-160c-35.3 0-64 28.7-64 64s28.7 64 64 64 64-28.7 64-64-28.7-64-64-64z" fill="none" stroke="currentColor" stroke-width="32"/>
  <path d="M416 416c-53 0-96-43-96-96s43-96 96-96 96 43 96 96-43 96-96 96zm0-160c-35.3 0-64 28.7-64 64s28.7 64 64 64 64-28.7 64-64-28.7-64-64-64z" fill="none" stroke="currentColor" stroke-width="32"/>
  <path d="M256 480c-35.3 0-64-28.7-64-64s28.7-64 64-64 64 28.7 64 64-28.7 64-64 64zm0-96c-17.7 0-32 14.3-32 32s14.3 32 32 32 32-14.3 32-32-14.3-32-32-32z" fill="none" stroke="currentColor" stroke-width="32"/>
</svg>