<svg xmlns="http://www.w3.org/2000/svg" viewBox="0 0 512 512" width="512" height="512" fill="none">
  <defs>
    <linearGradient id="g" x1="0" y1="0" x2="1" y2="1">
      <stop offset="0%" stop-color="#7C3AED"/>
      <stop offset="100%" stop-color="#0EA5E9"/>
    </linearGradient>
    <radialGradient id="glow" cx="50%" cy="50%" r="50%">
      <stop offset="0%" stop-color="#A78BFA" stop-opacity="0.25"/>
      <stop offset="100%" stop-color="#60A5FA" stop-opacity="0"/>
    </radialGradient>
  </defs>

  <circle cx="256" cy="256" r="220" fill="url(#glow)"/>

  <!-- Cloud shape -->
  <path d="M168 312h192c28 0 52-20 52-48s-24-48-50-48c-6-42-42-72-86-72-40 0-72 22-84 56-3-1-7-2-10-2-28 0-50 20-50 46s24 68 36 68z" stroke="url(#g)" stroke-width="8" stroke-linecap="round" stroke-linejoin="round"/>

  <!-- Arrows for sync -->
  <g stroke="url(#g)" stroke-width="8" stroke-linecap="round" stroke-linejoin="round">
    <path d="M208 352c0 24 20 44 44 44 16 0 30-8 38-20" opacity="0.9"/>
    <path d="M302 356l-12 20 24 2" opacity="0.9"/>
    <path d="M304 288c0-24-20-44-44-44-16 0-30 8-38 20" opacity="0.7"/>
    <path d="M210 284l12-20-24-2" opacity="0.7"/>
  </g>

  <!-- Nodes -->
  <g fill="url(#g)">
    <circle cx="172" cy="316" r="6"/>
    <circle cx="340" cy="316" r="6"/>
    <circle cx="256" cy="236" r="6"/>
  </g>
</svg>


