<svg xmlns="http://www.w3.org/2000/svg" viewBox="0 0 512 512" width="512" height="512" fill="none">
  <defs>
    <linearGradient id="g" x1="0" y1="0" x2="1" y2="1">
      <stop offset="0%" stop-color="#7C3AED"/>
      <stop offset="100%" stop-color="#0EA5E9"/>
    </linearGradient>
    <radialGradient id="glow" cx="50%" cy="50%" r="50%">
      <stop offset="0%" stop-color="#A78BFA" stop-opacity="0.25"/>
      <stop offset="100%" stop-color="#60A5FA" stop-opacity="0"/>
    </radialGradient>
  </defs>

  <circle cx="256" cy="256" r="220" fill="url(#glow)"/>

  <!-- Window frame -->
  <rect x="96" y="120" width="320" height="272" rx="20" stroke="url(#g)" stroke-width="6"/>
  <rect x="96" y="120" width="320" height="56" rx="20" stroke="url(#g)" stroke-opacity="0.6" stroke-width="3"/>
  <g fill="url(#g)">
    <circle cx="128" cy="148" r="6"/>
    <circle cx="152" cy="148" r="6"/>
    <circle cx="176" cy="148" r="6"/>
  </g>

  <!-- Code brackets and lines -->
  <g stroke="url(#g)" stroke-width="8" stroke-linecap="round" stroke-linejoin="round">
    <path d="M170 236l-36 20 36 20"/>
    <path d="M342 236l36 20-36 20"/>
    <path d="M230 212l-24 88" opacity="0.8"/>
  </g>

  <g stroke="url(#g)" stroke-width="6" stroke-linecap="round" opacity="0.7">
    <line x1="128" y1="336" x2="248" y2="336"/>
    <line x1="128" y1="360" x2="296" y2="360"/>
    <line x1="128" y1="312" x2="216" y2="312"/>
    <line x1="272" y1="312" x2="384" y2="312" opacity="0.6"/>
  </g>
</svg>


